<svg width="73" height="28" viewBox="0 0 73 28" fill="none" xmlns="http://www.w3.org/2000/svg">
<path d="M16.8091 10.9249C18.7242 9.83513 20.7603 8.74283 22.6753 7.65303C24.7114 6.5607 25.6172 3.54239 24.5986 1.16427C23.9619 -0.322053 22.8755 -0.149366 21.7985 0.473016C17.7294 2.80758 13.4088 4.69752 9.47018 7.47925C6.9655 9.33121 4.19994 10.2889 1.82573 12.588C-0.430545 14.7347 -0.0880977 19.5264 2.60661 20.9697C5.05606 22.2681 7.62342 23.4141 10.3056 24.2578C12.5004 24.9617 14.5804 25.9679 16.6572 26.8243C19.0973 27.673 19.6869 26.9109 19.8632 23.7579C20.052 21.2046 18.6984 20.1832 16.9784 19.0195C19.0177 18.0771 20.7282 18.791 22.302 18.7581C26.9055 18.8118 31.5153 19.1653 36.1188 19.219C42.296 19.2397 48.3741 20.3124 54.564 20.9327C57.842 21.3141 61.1202 21.6954 64.3951 21.9268C66.0931 22.0412 67.788 22.0058 69.4985 22.7198C71.088 23.4364 72.4008 22.5092 72.7295 20.8527C73.1636 18.4442 72.5144 16.3582 70.9312 15.9415C69.5901 15.5196 68.1311 15.2502 66.6752 15.1307C59.16 14.838 51.7407 13.3436 44.1044 13.0534C37.3187 12.8954 30.6447 12.2852 23.859 12.1272C21.5557 12.0254 19.125 11.6263 16.8185 11.3746C16.9365 11.2222 16.9333 11.0723 16.8091 10.9249Z" fill="#291313"/>
</svg>
