<svg width="98" height="38" viewBox="0 0 98 38" fill="none" xmlns="http://www.w3.org/2000/svg">
<path d="M22.1356 15.3148C24.6989 13.8238 27.4243 12.3294 29.9875 10.8384C32.7129 9.34393 33.9237 5.21156 32.5583 1.95455C31.705 -0.0810734 30.2506 0.154694 28.809 1.00623C23.3626 4.20036 17.5791 6.78549 12.3076 10.592C8.95543 13.1263 5.25336 14.4359 2.07611 17.5826C-0.943345 20.5206 -0.481806 27.082 3.12693 29.06C6.40721 30.8395 9.84526 32.4104 13.4368 33.5673C16.3758 34.5326 19.1612 35.9117 21.9424 37.0857C25.2098 38.2494 25.9988 37.2062 26.2328 32.889C26.484 29.3928 24.6709 27.9934 22.3674 26.3988C25.0971 25.1096 27.3877 26.0884 29.4948 26.0443C35.6582 26.1207 41.8302 26.6077 47.9937 26.6841C56.2641 26.7165 64.4025 28.1891 72.6902 29.0425C77.0793 29.5668 81.4684 30.091 85.8532 30.41C88.1267 30.5678 90.3958 30.5203 92.6864 31.4991C94.815 32.4813 96.572 31.2126 97.0111 28.9446C97.5907 25.6469 96.7203 22.7901 94.6003 22.2184C92.8045 21.6399 90.851 21.2702 88.9017 21.1056C78.8397 20.7 68.9054 18.6489 58.6814 18.2467C49.5962 18.026 40.6603 17.1863 31.5751 16.9656C28.4912 16.8247 25.2366 16.2767 22.1485 15.9306C22.3063 15.7219 22.302 15.5167 22.1356 15.3148Z" fill="#DFCCAF"/>
</svg>
